<?xml version="1.0" encoding="UTF-8" standalone="no"?>
<!DOCTYPE svg PUBLIC "-//W3C//DTD SVG 1.1//EN"
 "http://www.w3.org/Graphics/SVG/1.1/DTD/svg11.dtd">
<!-- Generated by graphviz version 13.1.2 (20250808.2320)
 -->
<!-- Title: dependency&#45;cruiser output Pages: 1 -->
<svg width="94pt" height="76pt"
 viewBox="0.00 0.00 94.00 76.00" xmlns="http://www.w3.org/2000/svg" xmlns:xlink="http://www.w3.org/1999/xlink">
<g id="graph0" class="graph" transform="scale(1 1) rotate(0) translate(4 72)">
<title>dependency&#45;cruiser output</title>
<polygon fill="white" stroke="none" points="-4,4 -4,-72 90,-72 90,4 -4,4"/>
<g id="clust1" class="cluster">
<title>cluster_packages</title>
<path fill="#ffffff" stroke="black" stroke-width="2" d="M20,-8C20,-8 66,-8 66,-8 72,-8 78,-14 78,-20 78,-20 78,-48 78,-48 78,-54 72,-60 66,-60 66,-60 20,-60 20,-60 14,-60 8,-54 8,-48 8,-48 8,-20 8,-20 8,-14 14,-8 20,-8"/>
<text xml:space="preserve" text-anchor="middle" x="43" y="-47.45" font-family="Helvetica,sans-Serif" font-weight="bold" font-size="9.00">packages</text>
</g>
<!-- packages/db&#45;client/ -->
<g id="node1" class="node">
<title>packages/db&#45;client/</title>
<g id="a_node1"><a xlink:href="packages/db-client/" xlink:title="db&#45;client">
<polygon fill="#ffffcc" stroke="black" points="70,-33.88 17.97,-33.88 16,-31.9 16,-16.12 68.03,-16.12 70,-18.1 70,-33.88"/>
<polyline fill="none" stroke="black" points="68.03,-31.9 16,-31.9"/>
<polyline fill="none" stroke="black" points="68.03,-31.9 68.03,-16.12"/>
<polyline fill="none" stroke="black" points="68.03,-31.9 70,-33.88"/>
<text xml:space="preserve" text-anchor="start" x="25.38" y="-21.32" font-family="Helvetica,sans-Serif" font-size="9.00">db&#45;client</text>
</a>
</g>
</g>
</g>
</svg>
